# xmcd
#
# Track frame offsets: 
#        150
#        15359
#        22479
#        39944
#        64312
#        83318
#        98164
#        113336
#        127649
#        161773
#        180368
#        200716
#        229788
#        259525
#        271964
#        291853
#        311457
#
# Disc length: 4647 seconds
#
# Revision: 0
# Processed by: cddbd v1.5.2PL0 Copyright (c) Steve Scherf et al.
# Submitted via: ExactAudioCopy v0.99pb5
#
DISCID=d2122511
DTITLE=Various  - Cave of Clear Light - The Pye and Dawn Records Under
DTITLE=ground Trip 1967-1975 [CD3]
DYEAR=1900
DGENRE=
TTITLE0=Paul Brett Sage  - 3D Mona Lisa
TTITLE1=The Trio - Billy The Kid
TTITLE2=Status Quo - Gerdundula
TTITLE3=Noir - Hard Labour
TTITLE4=Heron - Yellow Roses
TTITLE5=Atomic Rooster - Save Me
TTITLE6=Icarus - Fantastic Four
TTITLE7=Writing On The Wall - Man Of Renown
TTITLE8=Gravy Train - Staircase To The Day
TTITLE9=Jonesy - Ricochet
TTITLE10=Vincent Crane and Chris Farlowe - Can't Find A Reason
TTITLE11=Frupp - Decision
TTITLE12=David Mcwilliams - Lord Offaly
TTITLE13=Paul Brett Sage - Custom Angel Man
TTITLE14=Quicksand - Flying
TTITLE15=Stray - Stand Up And Be Counted
TTITLE16=Jonsey - No Alternative
EXTD=
EXTT0=
EXTT1=
EXTT2=
EXTT3=
EXTT4=
EXTT5=
EXTT6=
EXTT7=
EXTT8=
EXTT9=
EXTT10=
EXTT11=
EXTT12=
EXTT13=
EXTT14=
EXTT15=
EXTT16=
PLAYORDER=
